<?xml version="1.0" encoding="UTF-8" standalone="no"?>
<!DOCTYPE svg PUBLIC "-//W3C//DTD SVG 1.1//EN" "http://www.w3.org/Graphics/SVG/1.1/DTD/svg11.dtd">
<svg version="1.1" xmlns="http://www.w3.org/2000/svg" xmlns:xlink="http://www.w3.org/1999/xlink" preserveAspectRatio="xMidYMid meet" viewBox="0 0 640 640" width="1000" height="1000"><defs><path d="M368.66 383.88L309.34 405.85L36.83 506.73L75.99 232.66L115.16 -41.4L348.51 131.76L581.86 304.95L368.66 383.88Z" id="b1fHqunj4x"></path><path d="M484.29 371.98C484.29 409.1 454.68 439.24 418.21 439.24C381.75 439.24 352.14 409.1 352.14 371.98C352.14 334.86 381.75 304.72 418.21 304.72C454.68 304.72 484.29 334.86 484.29 371.98Z" id="axwLehmqO"></path><path d="M230.71 455.12C230.71 506.04 188.57 547.38 136.67 547.38C84.76 547.38 42.62 506.04 42.62 455.12C42.62 404.2 84.76 362.86 136.67 362.86C188.57 362.86 230.71 404.2 230.71 455.12Z" id="m2nHGAQXSM"></path><path d="M-24.38 503.17L714.59 737.52L576.37 309.27L-24.38 503.17Z" id="b9hayMn"></path></defs><g><g><g><use xlink:href="#b1fHqunj4x" opacity="1" fill="#fff5f5" fill-opacity="1"></use></g><g><use xlink:href="#axwLehmqO" opacity="1" fill="#64b4fa" fill-opacity="1"></use></g><g><use xlink:href="#m2nHGAQXSM" opacity="1" fill="#ffcc33" fill-opacity="1"></use></g><g><use xlink:href="#b9hayMn" opacity="1" fill="#ffffff" fill-opacity="1"></use></g></g></g></svg>