<?xml version="1.0" encoding="UTF-8" standalone="no"?>
<!DOCTYPE svg PUBLIC "-//W3C//DTD SVG 1.1//EN" "http://www.w3.org/Graphics/SVG/1.1/DTD/svg11.dtd">
<svg version="1.1" xmlns="http://www.w3.org/2000/svg" xmlns:xlink="http://www.w3.org/1999/xlink" preserveAspectRatio="xMidYMid meet" viewBox="0 0 640 640" width="1000" height="1000"><defs><path d="M607.01 590.56C589.7 564.59 559.39 560.26 516.1 577.58C485.8 591.43 457.23 600.52 430.39 604.85C390.13 611.34 364.16 624.33 264.16 616.54C164.16 608.74 178.44 590.56 130.39 572.38C98.35 560.26 54.89 574.98 0 616.54" id="dJaccYHzG"></path><path d="M378.44 632.12C378.44 683.73 318.79 725.63 245.32 725.63C171.86 725.63 112.21 683.73 112.21 632.12C112.21 580.51 171.86 538.61 245.32 538.61C318.79 538.61 378.44 580.51 378.44 632.12Z" id="jOFhRgvFM"></path><path d="M214.81 651.56C214.81 698.12 165.34 735.93 104.42 735.93C43.49 735.93 -5.97 698.12 -5.97 651.56C-5.97 604.99 43.49 567.19 104.42 567.19C165.34 567.19 214.81 604.99 214.81 651.56Z" id="c533pEFuo"></path><path d="M641.4 566.75C657.45 607.8 626.84 658.19 573.1 679.19C519.36 700.2 462.7 683.92 446.65 642.86C430.61 601.8 461.21 551.42 514.95 530.41C568.69 509.41 625.35 525.69 641.4 566.75Z" id="aRQe3jxKf"></path><path d="M303.51 695.11C303.51 745.64 257.24 786.67 200.26 786.67C143.28 786.67 97.01 745.64 97.01 695.11C97.01 644.58 143.28 603.55 200.26 603.55C257.24 603.55 303.51 644.58 303.51 695.11Z" id="a29txsKiI"></path><path d="M352.47 681.47C352.47 720.18 313.77 751.6 266.1 751.6C218.44 751.6 179.74 720.18 179.74 681.47C179.74 642.77 218.44 611.34 266.1 611.34C313.77 611.34 352.47 642.77 352.47 681.47Z" id="bgd2BKCCy"></path><path d="M464.16 575.95C464.16 605.16 439.13 628.87 408.31 628.87C377.49 628.87 352.47 605.16 352.47 575.95C352.47 546.74 377.49 523.03 408.31 523.03C439.13 523.03 464.16 546.74 464.16 575.95Z" id="a5ZxJgXq7"></path><path d="M458.96 673.59C458.96 718.03 417.35 754.11 366.1 754.11C314.85 754.11 273.25 718.03 273.25 673.59C273.25 629.15 314.85 593.07 366.1 593.07C417.35 593.07 458.96 629.15 458.96 673.59Z" id="bmEPkikqz"></path><path d="M520 638.61C520 662.27 488.28 681.47 449.22 681.47C410.16 681.47 378.44 662.27 378.44 638.61C378.44 614.96 410.16 595.76 449.22 595.76C488.28 595.76 520 614.96 520 638.61Z" id="c2iz3e2WmY"></path><path d="M620.65 622.38C620.65 658.58 582.24 687.97 534.94 687.97C487.63 687.97 449.22 658.58 449.22 622.38C449.22 586.18 487.63 556.8 534.94 556.8C582.24 556.8 620.65 586.18 620.65 622.38Z" id="dTMgL0qVz"></path><path d="M671.95 656.15C671.95 680.88 647.51 700.95 617.4 700.95C587.3 700.95 562.86 680.88 562.86 656.15C562.86 631.42 587.3 611.34 617.4 611.34C647.51 611.34 671.95 631.42 671.95 656.15Z" id="aELNC1D8j"></path><path d="M143.38 813.94C143.38 850.49 104.39 880.17 56.36 880.17C8.34 880.17 -30.65 850.49 -30.65 813.94C-30.65 777.38 8.34 747.71 56.36 747.71C104.39 747.71 143.38 777.38 143.38 813.94Z" id="gG43dmUOi"></path><path d="M717.4 554.2C717.4 577.14 692.67 595.76 662.21 595.76C631.74 595.76 607.01 577.14 607.01 554.2C607.01 531.26 631.74 512.64 662.21 512.64C692.67 512.64 717.4 531.26 717.4 554.2Z" id="evyeMEQs2"></path><path d="M22.6 615.22C22.6 635.27 15.03 651.56 5.71 651.56C-3.6 651.56 -11.17 635.27 -11.17 615.22C-11.17 595.16 -3.6 578.87 5.71 578.87C15.03 578.87 22.6 595.16 22.6 615.22Z" id="b2wbvyUA68"></path></defs><g><g><g><g><use xlink:href="#dJaccYHzG" opacity="1" fill-opacity="0" stroke="#000000" stroke-width="1" stroke-opacity="1"></use></g></g><g><use xlink:href="#jOFhRgvFM" opacity="1" fill="#192480" fill-opacity="1"></use></g><g><use xlink:href="#c533pEFuo" opacity="1" fill="#0688fa" fill-opacity="1"></use></g><g><use xlink:href="#aRQe3jxKf" opacity="1" fill="#192480" fill-opacity="1"></use></g><g><use xlink:href="#a29txsKiI" opacity="1" fill="#0688fa" fill-opacity="1"></use></g><g><use xlink:href="#bgd2BKCCy" opacity="1" fill="#0688fa" fill-opacity="1"></use></g><g><use xlink:href="#a5ZxJgXq7" opacity="1" fill="#ffbf00" fill-opacity="1"></use></g><g><use xlink:href="#bmEPkikqz" opacity="1" fill="#0688fa" fill-opacity="1"></use></g><g><use xlink:href="#c2iz3e2WmY" opacity="1" fill="#0688fa" fill-opacity="1"></use></g><g><use xlink:href="#dTMgL0qVz" opacity="1" fill="#0688fa" fill-opacity="1"></use></g><g><use xlink:href="#aELNC1D8j" opacity="1" fill="#0688fa" fill-opacity="1"></use></g><g><use xlink:href="#gG43dmUOi" opacity="1" fill="#0688fa" fill-opacity="1"></use></g><g><use xlink:href="#evyeMEQs2" opacity="1" fill="#192480" fill-opacity="1"></use></g><g><use xlink:href="#b2wbvyUA68" opacity="1" fill="#0688fa" fill-opacity="1"></use></g></g></g></svg>